<?xml version="1.0" encoding="UTF-8" standalone="no"?>
<svg width="241px" height="264px" viewBox="0 0 241 264" version="1.1" xmlns="http://www.w3.org/2000/svg" xmlns:xlink="http://www.w3.org/1999/xlink">
    <!-- Generator: Sketch 47.1 (45422) - http://www.bohemiancoding.com/sketch -->
    <title>apple</title>
    <desc>Created with Sketch.</desc>
    <defs></defs>
    <g id="Page-1" stroke="none" stroke-width="1" fill="none" fill-rule="evenodd">
        <g id="desktop-index" transform="translate(-663.000000, -364.000000)" fill="#F75550">
            <g id="apple" transform="translate(784.000000, 487.500000) rotate(-345.000000) translate(-784.000000, -487.500000) translate(665.000000, 354.000000)">
                <path d="M164.951691,0.181535739 C150.600879,-1.05284582 136.419305,4.05267923 126.233354,14.1274864 L109.524195,30.6528335 C108.108279,32.0478205 107.63022,34.1240764 108.295796,35.9878878 C108.961372,37.8516992 110.651803,39.1704455 112.639451,39.3764794 L145.066581,42.7374801 C157.148324,43.9954225 169.271807,40.7030554 178.990646,33.494472 L206.926868,12.7660813 C208.646797,11.4910221 209.39168,9.2977621 208.798791,7.25432512 C208.205902,5.21088814 206.39848,3.74203095 204.256662,3.56302413 L164.951691,0.181535739 Z M164.062002,10.3854151 L189.874261,12.6062776 L172.780743,25.2912127 C165.150861,30.9509289 155.644243,33.5415936 146.159375,32.5540884 L124.534557,30.293275 L133.556662,21.3698744 C141.583849,13.4309059 152.7526,9.41327564 164.062002,10.3854151 L164.062002,10.3854151 Z" id="Shape"></path>
                <path d="M82.7826087,55.0000103 C37.1242748,55.0000103 0,92.1000085 0,137.731714 C0,160.546015 8.90802957,191.90133 23.3635287,218.3217 C30.5911748,231.532919 39.2250904,243.473172 49.1319957,252.315123 C59.0389009,261.158108 70.4312365,267 82.7826087,267 C96.3479878,267 108.43518,260.331825 119,254.679181 C129.568545,260.330791 141.661222,266.978283 155.217391,267 C167.568867,267 178.961099,261.158108 188.868108,252.315123 C198.775013,243.473172 207.408825,231.532919 214.636575,218.3217 C229.09197,191.90133 238,160.546015 238,137.731714 C238,92.1000085 200.875829,55.0000103 155.217391,55.0000103 C144.83759,55.0000103 134.352138,56.1820396 124.376006,59.8677369 C121.913637,60.7777857 116.08895,60.7777857 113.623994,59.8677369 C103.64631,56.1861761 93.1739991,55.0155225 82.8028904,55.0000103 C82.7959919,54.9999966 82.7890933,54.9999966 82.7821948,55.0000103 L82.7826087,55.0000103 Z M82.7826087,65.3414733 C92.3755609,65.3414733 101.615031,66.4717951 110.04675,69.5825072 C115.71829,71.6745851 122.300853,71.6580388 127.973531,69.5825072 C136.40732,66.4666244 145.632821,65.361122 155.217391,65.361122 C195.283346,65.361122 227.652174,97.709218 227.652174,137.751362 C227.652174,157.770366 219.195413,188.47417 205.562049,213.392959 C198.745315,225.852353 190.639242,236.886694 181.976249,244.619006 C173.319361,252.346147 164.31075,256.671981 155.237673,256.678186 C144.517118,256.678186 132.670927,250.31405 121.425323,244.357367 C119.908614,243.553105 118.09149,243.553105 116.57478,244.357367 C105.324934,250.316118 93.4925052,256.678186 82.7826087,256.678186 C73.7030122,256.678186 64.6868478,252.352352 56.0238548,244.619006 C47.3607583,236.886694 39.274967,225.852353 32.458233,213.392959 C18.8248687,188.47417 10.3478261,157.770366 10.3478261,137.751362 C10.3478261,97.709218 42.7167574,65.361122 82.7826087,65.361122 L82.7826087,65.3414733 Z" id="Shape"></path>
                <path d="M99.9386377,82 C97.5650043,82.0865561 95.5603952,83.8707664 95.098241,86.3082141 C94.6360868,88.7456618 95.8379184,91.1953813 98.000224,92.2233893 C112.139338,99.300544 123.901503,97.784699 137.668384,92.4160815 C140.317227,91.3825864 141.663769,88.2981268 140.675969,85.5267482 C139.68817,82.7553696 136.740089,81.3465366 134.091246,82.3800317 C121.256175,87.3889573 114.349815,88.5408281 102.416676,82.5727239 C101.64928,82.1689637 100.797075,81.9738431 99.9386377,82.0053526 L99.9386377,82 Z" id="Shape"></path>
                <path d="M100.151541,11.0015675 C98.1948381,11.0425215 96.4228141,12.1476211 95.5510359,13.8706124 C94.6792578,15.5936036 94.8516952,17.6499433 95.9987156,19.2092538 L101.117828,26.3653627 C109.168328,37.6739605 113.47357,51.1519544 113.473465,64.9559786 L113.473465,75.7512079 C113.446622,77.6175298 114.443833,79.3534888 116.083245,80.2943524 C117.722658,81.2352159 119.750278,81.2352159 121.389691,80.2943524 C123.029104,79.3534888 124.026314,77.6175298 123.999471,75.7512079 L123.999471,64.9559786 C123.999577,49.0301691 119.020355,33.489386 109.731786,20.4419593 L104.633304,13.2651501 C103.627528,11.8108956 101.93955,10.9583569 100.151541,11.0015675 L100.151541,11.0015675 Z" id="Shape"></path>
                <path d="M58.8624306,85 C57.8780261,85.0416688 56.9261204,85.3632224 56.1190506,85.9267131 C52.7259473,88.207457 49.5618118,90.8001943 46.6787996,93.6688862 C35.1431364,105.148802 28,121.058407 28,138.55681 C28,147.307041 29.731563,157.543102 32.8007858,168.160145 C34.3352939,173.468151 36.212376,178.864711 38.3883453,184.189192 C39.4764848,186.851948 40.6419798,189.487932 41.8780138,192.091996 C42.6669221,193.755549 44.2861376,194.873063 46.1256239,195.023516 C47.9651101,195.173969 49.7453543,194.334499 50.7956527,192.821376 C51.8459512,191.308252 52.0067094,189.351396 51.217362,187.688049 C50.0647768,185.259031 48.9677553,182.799123 47.9496384,180.307294 C45.9128882,175.324667 44.1562286,170.27511 42.7252052,165.325432 C39.862952,155.425047 38.3278242,145.933446 38.3278242,138.577403 C38.3278242,123.866347 44.304846,110.619499 53.9808812,100.98992 C56.4003806,98.582525 59.0456462,96.4047492 61.8881733,94.4946906 C63.8504083,93.2351517 64.7215772,90.8201261 64.0134438,88.6030853 C63.3053104,86.3860445 61.1938606,84.9179688 58.8624306,85.0216233 L58.8624306,85 Z M58.661038,205.64569 C56.7486995,205.755328 55.0543098,206.91123 54.2591284,208.648645 C53.4639469,210.386059 53.6986088,212.419557 54.8687642,213.931534 C58.1569369,218.30562 61.7039249,222.264745 65.519333,225.656515 C73.1516984,232.442114 82.0415796,236.999483 91.7625409,236.999483 C93.6248331,237.025741 95.3570439,236.050244 96.295876,234.446528 C97.234708,232.842812 97.234708,230.859341 96.295876,229.255626 C95.3570439,227.65191 93.6248331,226.676412 91.7625409,226.702671 C85.3001115,226.702671 78.7870757,223.634221 72.3978705,217.954499 C69.2019253,215.112579 66.0864338,211.659028 63.1390793,207.738002 C62.10454,206.319658 60.41705,205.523826 58.661038,205.626126 L58.661038,205.64569 Z" id="Shape"></path>
            </g>
        </g>
    </g>
</svg>