<?xml version="1.0" encoding="UTF-8" standalone="no"?>
<svg width="60px" height="60px" viewBox="0 0 60 60" version="1.1" xmlns="http://www.w3.org/2000/svg" xmlns:xlink="http://www.w3.org/1999/xlink">
    <!-- Generator: Sketch 47.1 (45422) - http://www.bohemiancoding.com/sketch -->
    <title>local</title>
    <desc>Created with Sketch.</desc>
    <defs></defs>
    <g id="Page-1" stroke="none" stroke-width="1" fill="none" fill-rule="evenodd">
        <g id="local" fill-rule="nonzero" fill="#000000">
            <path d="M54.8390323,26.1290323 L47.0970968,31.9354839 L45.483871,31.9354839 L45.483871,29.1803226 L40.4574194,28.3422581 L42.9822581,24.4577419 C44.6187097,21.9396774 45.483871,19.0219355 45.483871,16.02 L45.483871,15.483871 C45.483871,6.94645161 38.5374194,0 30,0 C21.4625806,0 14.516129,6.94645161 14.516129,15.483871 L14.516129,16.02 C14.516129,18.1141935 14.9458065,20.1629032 15.7558065,22.0674194 L8.49193548,21.2603226 L3.16548387,24.4567742 L0,29.7319355 L0,44.0129032 L5.33709677,48.2825806 L13.923871,51.1441935 L16.9354839,55.1612903 L21.7935484,55.1612903 L25.6645161,60 L31.3432258,60 L30.33,56.9583871 L38.7096774,56.0283871 L38.7096774,54.1935484 L44.516129,54.1935484 L44.516129,56.4222581 L46.9016129,60 L50.9206452,60 L52.4680645,56.906129 L50.3225806,54.7606452 L50.3225806,50.8064516 L54.1935484,47.9032258 L54.1935484,42.0135484 L57.0967742,39.1103226 L57.0967742,34.1932258 L60,30.3222581 L60,26.1290323 L54.8390323,26.1290323 Z M16.4516129,15.483871 C16.4516129,8.01290323 22.5290323,1.93548387 30,1.93548387 C37.4709677,1.93548387 43.5483871,8.01290323 43.5483871,15.483871 L43.5483871,16.02 C43.5483871,18.6474194 42.7916129,21.2003226 41.3593548,23.403871 L32.1783871,37.5280645 C31.6974194,38.2674194 30.8835484,38.7096774 30,38.7096774 C29.1164516,38.7096774 28.3025806,38.2674194 27.8216129,37.5270968 L18.6406452,23.4029032 C17.2083871,21.1993548 16.4516129,18.6474194 16.4516129,16.02 L16.4516129,15.483871 Z M26.3864516,38.8345161 C27.24,39.9696774 28.5648387,40.6451613 30,40.6451613 C31.4351613,40.6451613 32.76,39.9696774 33.6135484,38.8345161 C38.6690323,39.1887097 41.0670968,40.1506452 41.5567742,40.6470968 C40.8590323,41.3893548 36.7006452,42.5806452 30,42.5806452 C23.2993548,42.5806452 19.1409677,41.3893548 18.4422581,40.6470968 C18.9319355,40.1506452 21.33,39.1887097 26.3864516,38.8345161 Z M58.0645161,29.6777419 L55.1612903,33.5487097 L55.1612903,38.3090323 L52.2580645,41.2122581 L52.2580645,46.9354839 L48.3870968,49.8387097 L48.3870968,55.5619355 L50.1125806,57.2874194 L49.7245161,58.0645161 L47.9370968,58.0645161 L46.4516129,55.8358065 L46.4516129,52.2580645 L36.7741935,52.2580645 L36.7741935,54.2941935 L27.7354839,55.2987097 L28.6577419,58.0645161 L26.5935484,58.0645161 L22.7225806,53.2258065 L17.9032258,53.2258065 L15.1093548,49.5 L6.27677419,46.5551613 L1.93548387,43.083871 L1.93548387,30.2680645 L4.57645161,25.8658065 L8.92741935,23.2558065 L16.8232258,24.1335484 C16.8890323,24.2409677 16.9490323,24.3522581 17.0177419,24.4587097 L25.166129,36.993871 C21.6077419,37.3248387 16.4516129,38.2229032 16.4516129,40.6451613 C16.4516129,44.4077419 28.6132258,44.516129 30,44.516129 C31.3867742,44.516129 43.5483871,44.4077419 43.5483871,40.6451613 C43.5483871,38.2229032 38.3922581,37.3248387 34.833871,36.993871 L39.3067742,30.1132258 L43.5483871,30.8196774 L43.5483871,33.8709677 L47.7416129,33.8709677 L55.4835484,28.0645161 L58.0645161,28.0645161 L58.0645161,29.6777419 Z" id="Shape"></path>
            <path d="M29.5,25 C34.7383,25 39,20.7383 39,15.5 C39,10.2617 34.7383,6 29.5,6 C24.2617,6 20,10.2617 20,15.5 C20,20.7383 24.2617,25 29.5,25 Z M29.5,7.9 C33.69045,7.9 37.1,11.30955 37.1,15.5 C37.1,19.69045 33.69045,23.1 29.5,23.1 C25.30955,23.1 21.9,19.69045 21.9,15.5 C21.9,11.30955 25.30955,7.9 29.5,7.9 Z" id="Shape"></path>
            <path d="M30,11.9234468 L30,10 C27.5833333,10 25.4804422,11.9426813 25,14.6172341 L26.6666667,15 C26.9872449,13.2179265 28.3886054,11.9234468 30,11.9234468 Z" id="Shape"></path>
            <path d="M27,17.7133667 C26.7357223,17.2083631 26.5505786,16.6165118 26.4632325,16 L25,16.4267334 C25.1306458,17.3520372 25.4098544,18.2419585 25.806271,19 L27,17.7133667 Z" id="Shape"></path>
        </g>
    </g>
</svg>