<?xml version="1.0" encoding="UTF-8" standalone="no"?>
<svg width="262px" height="282px" viewBox="0 0 262 282" version="1.1" xmlns="http://www.w3.org/2000/svg" xmlns:xlink="http://www.w3.org/1999/xlink">
    <!-- Generator: Sketch 47.1 (45422) - http://www.bohemiancoding.com/sketch -->
    <title>mushroom</title>
    <desc>Created with Sketch.</desc>
    <defs></defs>
    <g id="Page-1" stroke="none" stroke-width="1" fill="none" fill-rule="evenodd">
        <g id="desktop-index" transform="translate(-110.000000, -447.000000)" fill="#F75550">
            <g id="mushroom" transform="translate(242.500000, 586.500000) rotate(-12.000000) translate(-242.500000, -586.500000) translate(100.000000, 458.000000)">
                <path d="M46.1766904,128.574066 C45.6096053,128.596195 45.0515719,128.723543 44.5310185,128.949623 C39.8817158,130.918091 35.6996608,133.757667 32.1881123,137.269582 C28.6765638,140.781497 25.8368041,144.963003 23.8701684,149.613496 C23.1579071,151.13173 23.3321997,152.91788 24.3245244,154.269737 C25.3168492,155.621595 26.9685315,156.322994 28.6302263,156.098186 C30.2919211,155.873378 31.6979201,154.758311 32.2954666,153.191362 C33.7958622,149.643724 35.9752829,146.434086 38.6636291,143.745649 C41.3518836,141.057211 44.5604218,138.896385 48.10861,137.394157 C50.1759201,136.555464 51.338223,134.349008 50.8608287,132.169486 C50.3834344,129.989964 48.4052531,128.471565 46.1766904,128.574066 L46.1766904,128.574066 Z" id="Shape" fill-rule="nonzero"></path>
                <path d="M174.595896,0.31680853 C138.887305,0.31680853 108.447046,27.6042225 97.4084209,60.7695599 L93.1152561,73.668565 C89.7450452,83.7930292 95.7725501,94.7812742 106.119875,97.4449801 C107.29775,97.7472576 108.546156,97.5640591 109.590204,96.9411843 L112.291374,95.3308696 C112.227255,97.4733759 113.650615,99.3758921 115.725888,99.9108317 L125.331808,102.380347 C130.281373,103.654493 135.24651,104.779331 140.250577,105.742955 C143.07678,106.292551 144.485759,104.872763 145.330762,104.097833 C146.176223,103.319239 146.751833,102.560798 147.352175,101.718085 C148.231527,100.484243 149.068378,99.034227 149.910175,97.6208507 C149.983454,98.9279718 150.00727,100.268069 150.178561,101.485423 C150.317792,102.477442 150.46435,103.391603 150.912271,104.509114 C151.136689,105.067869 151.432554,105.718224 152.075031,106.440942 C152.718058,107.164576 153.908482,107.992633 155.330652,108.176747 C165.419667,109.482036 175.553383,110.140635 185.686823,110.234066 C185.692961,110.234066 185.695983,110.234066 185.705143,110.234066 C195.85324,110.325665 206.015901,109.74859 216.114992,108.569708 C221.16724,107.983473 226.200801,107.247015 231.212654,106.35209 C233.030991,106.022333 234.32483,104.808643 234.969139,103.865171 C235.613998,102.920783 235.883299,102.106466 236.113946,101.342528 C236.450115,100.230513 236.582018,99.2339133 236.740485,98.2299856 C237.699163,99.2265854 238.690541,100.260741 239.853119,101.217037 C240.478742,101.729993 241.14018,102.238368 242.071194,102.684457 C243.002301,103.133293 244.382243,103.643501 246.185466,103.206572 L270.459723,97.2855974 C282.719915,93.9330652 286.563053,82.4300325 283.571788,73.6878009 L279.278623,60.7878797 C268.239815,27.6225424 237.781785,0.336044371 202.073287,0.336044371 L174.595896,0.31680853 Z M174.595896,9.47673267 L202.072096,9.47673267 C233.051142,9.47673267 260.672894,33.8714426 270.58384,63.64944 L274.877005,76.566765 C276.59046,81.7137264 273.630705,87.07503 268.294134,88.3748232 L245.450932,93.9193253 C244.857369,93.4063696 244.023632,92.5810604 243.089595,91.6119404 C242.06982,90.5530532 241.002415,89.4236346 239.762436,88.3913111 C239.142309,87.8783553 238.490305,87.3773075 237.580084,86.9248072 C236.669587,86.475971 235.339017,85.9355354 233.537351,86.3110923 C233.531214,86.3110923 233.528191,86.3110923 233.519031,86.3110923 C231.719931,86.6958091 230.50908,87.9351469 229.887763,88.8694591 C229.265804,89.8056034 228.988258,90.6116767 228.760817,91.3746984 C228.306485,92.8998258 228.123286,94.3333539 227.919936,95.650551 C227.788033,96.5115838 227.666206,97.0199596 227.544379,97.6181027 C223.388247,98.3234168 219.215077,98.9930073 215.040533,99.4793993 C205.319197,100.609734 195.546016,101.132766 185.775491,101.071394 C176.876076,100.979795 168.008353,100.30196 159.175805,99.2641411 C159.050314,98.0238873 158.95047,96.5271557 158.871695,94.7739462 C158.776432,92.6497598 158.700405,90.4642019 158.424691,88.4764984 C158.286376,87.4826466 158.127909,86.5629902 157.690981,85.4528074 C157.472975,84.8940521 157.198177,84.2739252 156.581897,83.5567031 C155.968182,82.8422291 154.837756,82.000432 153.433631,81.76777 L153.415311,81.76777 C150.607337,81.3189337 149.289224,82.7121581 148.460251,83.4852557 C147.628529,84.2638493 147.055301,85.020459 146.456792,85.864088 C145.259773,87.5522621 144.087852,89.5390496 142.950648,91.4644656 C141.838725,93.3459141 140.770952,95.1485871 139.963413,96.2944936 C135.827616,95.4609406 131.701253,94.5770079 127.602645,93.5217846 L122.164673,92.1084083 L123.112634,87.1345695 C123.84726,83.2617536 119.670975,80.3314939 116.279422,82.3402652 L107.263767,87.6887449 C102.842271,85.7724888 100.224731,81.2639741 101.789979,76.5612691 L106.083144,63.6439441 C115.994365,33.8659467 143.615841,9.47215271 174.594888,9.47215271 L174.595896,9.47673267 Z" id="Shape"></path>
                <path d="M169.944853,114.816776 C167.415807,114.856314 165.397652,116.938814 165.437162,119.468186 L165.437162,132.2417 C165.437162,143.305972 162.840141,154.763205 160.070638,166.180135 L156.618262,180.456793 C156.57836,180.622885 156.547779,180.79108 156.526663,180.960588 C154.187768,199.34364 169.045165,215.57869 187.884656,215.57869 L188.77958,215.57869 C207.619071,215.57869 222.49433,199.34364 220.155435,180.960588 C220.129188,180.790779 220.093407,180.622581 220.048264,180.456793 C220.048264,180.456793 217.749947,170.938715 216.595797,166.180135 C213.826385,154.763205 211.229363,143.305972 211.229363,132.2417 L211.229363,119.468186 C211.252836,117.816412 210.385184,116.279965 208.958675,115.447227 C207.532165,114.614489 205.767829,114.614489 204.341319,115.447227 C202.91481,116.279965 202.047157,117.816412 202.07063,119.468186 L202.07063,132.2417 C202.07063,144.712937 204.900314,156.855332 207.687496,168.344625 C208.805648,172.954815 210.913804,181.610943 211.050562,182.174278 C212.654464,195.072368 202.406983,206.416018 188.779763,206.416018 L187.884839,206.416018 C174.242414,206.416018 163.981925,195.054964 165.614132,182.138555 L168.977107,168.344625 C171.764197,156.855332 174.593972,144.713853 174.593972,132.2417 L174.593972,119.468186 C174.613335,118.228679 174.129528,117.034255 173.253049,116.157706 C172.37657,115.281158 171.182275,114.797349 169.942929,114.816776 L169.944853,114.816776 Z" id="Shape"></path>
                <path d="M174.613758,18.3508672 C161.937155,18.3508672 150.158684,23.1891391 140.662041,30.802868 C135.913444,34.6097325 131.730748,39.1182472 128.229734,44.1131538 C127.234979,45.4504532 127.045092,47.2226325 127.733932,48.7403737 C128.422772,50.2581149 129.881596,51.2818194 131.54297,51.4133007 C133.204343,51.5447819 134.805994,50.7632836 135.724933,49.3727823 C138.737815,45.0749458 142.356901,41.1856421 146.404122,37.9411969 C154.498931,31.4513907 164.261028,27.5107913 174.613758,27.5107913 C176.265243,27.5341504 177.801373,26.6663594 178.633932,25.2397125 C179.46649,23.8130655 179.46649,22.048593 178.633932,20.621946 C177.801373,19.195299 176.265243,18.327508 174.613758,18.3508672 L174.613758,18.3508672 Z" id="Shape"></path>
                <path d="M191.893771,123.636867 C189.372264,123.676329 187.357095,125.747064 187.385898,128.269041 L187.385898,138.609679 C187.385898,148.819331 189.694199,158.679073 191.947357,167.968152 C192.843197,171.662349 194.51351,178.485577 194.648527,179.0425 C195.257662,183.976035 193.620325,188.54867 190.498532,191.977229 C189.391098,193.187661 189.014866,194.897705 189.511988,196.461252 C190.009109,198.024798 191.303787,199.203447 192.90685,199.551868 C194.509913,199.900289 196.176937,199.365357 197.278066,198.149186 C202.100949,192.853834 204.731222,185.530475 203.753583,177.843466 C203.727336,177.673657 203.691556,177.505459 203.646412,177.33967 C203.646412,177.33967 201.788321,169.643502 200.855841,165.799998 C198.620362,156.584198 196.544814,147.407786 196.544814,138.606015 L196.544814,128.265377 C196.55918,127.029058 196.073192,125.83944 195.197309,124.966903 C194.321425,124.094367 193.130047,123.613028 191.893954,123.632287 L191.893771,123.636867 Z" id="Shape"></path>
                <path d="M79.0730008,188.113573 C77.7822576,188.205983 76.5908449,188.840196 75.7933294,189.859407 C74.9958138,190.878619 74.6666389,192.187692 74.8871903,193.462969 L80.6292719,229.870003 L80.5926322,229.705125 C81.7672093,239.343197 74.503939,247.632012 65.0299211,247.632012 L64.3676586,247.632012 C54.8934574,247.632012 47.6126001,239.343197 48.7870856,229.705125 L51.7922735,211.707706 C52.0681085,210.09193 51.4596906,208.451893 50.1968374,207.407084 C48.9339841,206.362276 47.2091846,206.07195 45.6739464,206.645771 C44.1387083,207.219592 43.0270387,208.570096 42.7588479,210.187158 L39.7177531,228.399836 C39.7101635,228.466865 39.7040554,228.534054 39.6994333,228.601354 C37.8863179,243.477071 49.4741715,256.796516 64.3672006,256.796516 L65.0294631,256.796516 C79.9224006,256.796516 91.5102542,243.477071 89.6972304,228.601354 C89.6860315,228.546174 89.6738162,228.491205 89.6605907,228.436475 L83.9364625,192.029441 C83.5952352,189.647949 81.4699773,187.936348 79.0708024,188.110825 L79.0730008,188.113573 Z" id="Shape"></path>
                <path d="M60.1115914,110.236814 C27.2828813,110.236814 0.579687271,137.007608 0.57977887,169.883492 C0.57977887,175.063429 3.06972105,179.700183 6.73323271,183.176374 C10.396836,186.651649 15.2182536,189.237496 20.7576262,191.280159 C31.836188,195.367317 45.9511731,197.256093 60.1115914,197.256093 C74.2719182,197.256093 88.4048567,195.366401 99.4835102,191.280159 C105.022699,189.237496 109.826347,186.651649 113.489859,183.176374 C117.153462,179.700183 119.643404,175.063429 119.643404,169.883492 C119.643404,137.007608 92.9402099,110.236814 60.1115914,110.236814 Z M60.1115914,119.396738 C87.9817598,119.396738 110.484671,141.949388 110.484671,169.883492 C110.484671,172.30446 109.540191,174.312316 107.193235,176.539093 C104.846371,178.764039 101.081459,180.935857 96.3171992,182.69273 C86.7886797,186.208309 73.4273732,188.096169 60.1115914,188.096169 C46.7957181,188.096169 33.4524566,186.207393 23.9238455,182.69273 C19.1594942,180.935857 15.3768119,178.764955 13.0298562,176.539093 C10.6830836,174.312316 9.73851222,172.30446 9.73851222,169.883492 C9.73842062,141.949388 32.2413315,119.396738 60.1115914,119.396738 Z" id="Shape" fill-rule="nonzero"></path>
            </g>
        </g>
    </g>
</svg>