<?xml version="1.0" encoding="UTF-8" standalone="no"?>
<svg width="199px" height="311px" viewBox="0 0 199 311" version="1.1" xmlns="http://www.w3.org/2000/svg" xmlns:xlink="http://www.w3.org/1999/xlink">
    <!-- Generator: Sketch 47.1 (45422) - http://www.bohemiancoding.com/sketch -->
    <title>orange</title>
    <desc>Created with Sketch.</desc>
    <defs></defs>
    <g id="Page-1" stroke="none" stroke-width="1" fill="none" fill-rule="evenodd">
        <g id="desktop-index" transform="translate(0.000000, -30.000000)" fill="#F75550">
            <g id="orange" transform="translate(-48.000000, 30.000000)">
                <path d="M123.5,70 C58.6105124,70 0,122.329917 0,187.560976 C0,261.036585 55.9580852,311 123.5,311 C191.041797,311 247,261.036585 247,187.560976 C247,122.329917 188.389605,70 123.5,70 Z M123.5,81.7560976 C182.033001,81.7560976 235.238095,129.4306 235.238095,187.560976 C235.238095,255.158537 185.339038,299.243902 123.5,299.243902 C61.6608448,299.243902 11.7619048,255.158537 11.7619048,187.560976 C11.7619048,129.4306 64.9671162,81.7560976 123.5,81.7560976 Z" id="Shape" fill-rule="nonzero"></path>
                <path d="M102.48118,14 C101.347987,14.0178246 100.243977,14.3574208 99.301165,14.9781799 L81.6267313,26.5777638 C80.1563019,27.5455076 79.2028786,29.112913 79.0287405,30.8487992 C78.8546024,32.5846855 79.4780931,34.3061954 80.7276953,35.5397553 L83.5851431,38.3601741 C90.1872763,44.8767157 94.9723422,49.7804249 97.9644094,54.7807877 C100.956595,59.7823149 102.504305,64.9794781 102.504069,73.4535441 L114.302441,73.4535441 C114.302677,63.4446672 112.147705,55.5877861 108.126701,48.867457 C104.608663,42.9878968 99.5173112,37.9968501 93.9548506,32.4689689 L101.674408,27.3975717 C113.468061,39.322051 120.201864,55.2454231 120.201628,71.9303782 L120.201628,75 L132,75 L132,71.9303782 C132.000354,51.9044728 123.948319,32.6878949 109.601498,18.5264112 L106.74405,15.7071569 C105.615424,14.5925895 104.077316,13.9770757 102.480944,14.0011645 L102.48118,14 Z" id="Shape"></path>
                <path d="M178.099584,0 C160.629034,0 144.3544,8.65111077 134.893411,22.9494744 L121.936175,42.5357833 C120.779628,44.2948431 120.688373,46.5246207 121.697502,48.367677 C122.70663,50.2107333 124.659006,51.3800766 126.803861,51.4260474 L157.052799,51.992159 C172.429755,52.2809915 186.83118,44.57263 194.811783,31.7738847 L209.136542,8.78050773 C210.250809,6.99609067 210.289167,4.7651822 209.23687,2.94546132 C208.184573,1.12574045 206.205434,0.000488090789 204.06034,0.00231065993 L178.099584,0 Z M178.099584,11.5532996 L193.513805,11.5532996 L184.659259,25.7696348 C178.862563,35.0654197 168.453576,40.6433528 157.284577,40.4365487 L137.67498,40.0783964 L144.860561,29.2240714 C152.144881,18.2160875 164.648293,11.5556103 178.099584,11.5556103 L178.099584,11.5532996 Z" id="Shape"></path>
                <path d="M58.365882,119.000182 C56.8341599,118.988149 55.3580835,119.571942 54.2512318,120.62754 C35.9440337,137.640294 24.000591,161.327914 24.000591,187.565101 C23.9705777,189.68076 25.0855712,191.648639 26.9186187,192.7152 C28.7516662,193.781761 31.0187735,193.781761 32.851821,192.7152 C34.6848685,191.648639 35.799862,189.68076 35.7698487,187.565101 C35.7698487,164.87126 46.0764231,144.250629 62.2736286,129.197275 C64.0575277,127.571581 64.6630507,125.023866 63.8004918,122.773056 C62.9379329,120.522247 60.7826769,119.026001 58.365882,119.000182 L58.365882,119.000182 Z M37.1949881,219.807203 C35.219306,219.821369 33.3825787,220.822883 32.3048283,222.473663 C31.227078,224.124444 31.0521274,226.2042 31.8390343,228.01087 C36.8973436,240.114565 44.2381827,250.697671 53.2857996,259.405855 C62.3334165,268.114038 73.0783957,274.948472 84.9616975,279.594714 C86.9203269,280.360453 89.1399633,280.026254 90.7843889,278.718021 C92.4288145,277.409788 93.2481654,275.326303 92.9337622,273.252489 C92.619359,271.178676 91.2189741,269.429642 89.2601835,268.664313 C78.779071,264.565999 69.3774349,258.562257 61.4690822,250.949929 C53.5607295,243.337602 47.1547225,234.127249 42.7118277,223.497211 C41.811647,221.251135 39.6210986,219.785959 37.1949881,219.807203 L37.1949881,219.807203 Z" id="Shape" fill-rule="nonzero"></path>
            </g>
        </g>
    </g>
</svg>