<?xml version="1.0" encoding="UTF-8" standalone="no"?>
<svg width="259px" height="279px" viewBox="0 0 259 279" version="1.1" xmlns="http://www.w3.org/2000/svg" xmlns:xlink="http://www.w3.org/1999/xlink">
    <!-- Generator: Sketch 47.1 (45422) - http://www.bohemiancoding.com/sketch -->
    <title>pear</title>
    <desc>Created with Sketch.</desc>
    <defs></defs>
    <g id="Page-1" stroke="none" stroke-width="1" fill="none" fill-rule="evenodd">
        <g id="desktop-index" transform="translate(-765.000000, 0.000000)" fill="#F75550">
            <g id="pear" transform="translate(910.500000, 117.000000) rotate(-30.000000) translate(-910.500000, -117.000000) translate(815.000000, -52.000000)">
                <path d="M95.2760509,72.6618909 C67.4818971,72.6618909 44.8357886,95.4399815 44.8357886,123.369978 L44.8357886,133.77516 C44.8357886,153.660795 28.5239683,181.121104 16.134719,199.706936 C5.81643477,215.188559 0.023762968,233.618955 0,252.879467 C0,279.357604 11.3987146,300.88883 29.0293797,315.33534 C46.6601569,329.784104 70.3220202,337.358779 95.2760509,337.358779 C120.229969,337.358779 143.891945,329.784104 161.522722,315.33534 C179.153387,300.88883 190.552102,279.357604 190.552102,252.879467 C190.529684,233.616702 184.757188,215.187432 174.43924,199.706936 C162.049991,181.121104 145.738058,153.660795 145.738171,133.77516 L145.738171,123.369978 C145.738171,95.4399815 123.070205,72.6618909 95.2760509,72.6618909 Z M95.2760509,83.9478756 C117.002577,83.9478756 134.507366,101.536891 134.507366,123.369978 L134.507366,133.77516 C134.507254,159.371368 152.535164,187.107632 165.11306,205.979556 C174.213492,219.630866 179.320849,235.885162 179.343155,252.879467 C179.343155,276.16554 169.722739,294.071059 154.429476,306.603908 C139.136325,319.135631 117.956795,326.094195 95.2760509,326.094195 C72.5954188,326.094195 51.4377464,319.135631 36.1444831,306.603908 C20.856488,294.074438 11.2374179,276.176803 11.2308046,252.901994 L11.2308046,252.901994 C11.2532225,235.905437 16.3608035,219.653393 25.4608993,206.002083 C38.0387952,187.130159 56.0665933,159.393894 56.0665933,133.797687 L56.0665933,123.392505 C56.0665933,101.559418 73.5495244,83.9704025 95.2760509,83.9704025 L95.2760509,83.9478756 Z" id="Shape"></path>
                <path d="M117.365784,0.0021978552 C115.533025,0.0542386258 113.842918,1.03453589 112.84795,2.62263584 L109.285728,8.1112206 C96.5231392,27.8533825 89.7158615,51.0657611 89.7157503,74.7930529 L89.7157503,80.1921873 C89.6873906,82.2601088 90.7409527,84.1835856 92.4730072,85.226081 C94.2050616,86.2685764 96.3472611,86.2685764 98.0793156,85.226081 C99.81137,84.1835856 100.864932,82.2601088 100.836572,80.1921873 L100.836572,74.7930529 C100.836684,53.3295443 107.015079,32.3316364 118.560383,14.4725202 L122.100808,8.98508219 C123.287149,7.20683881 123.404768,4.89227302 122.405159,2.99589867 C121.405549,1.09952431 119.458044,-0.0574142659 117.365784,0.0021978552 L117.365784,0.0021978552 Z" id="Shape"></path>
                <path d="M43.299359,11.2077768 L18.7267234,15.6107471 C16.484041,16.0120081 14.7017739,17.7575865 14.2165701,20.028057 C13.7313663,22.2985276 14.6395753,24.6430304 16.5148576,25.9609876 L36.2911177,39.9088747 C48.1610005,48.2824115 62.6568852,51.8434525 76.9606727,49.8999226 L98.9271554,46.9268594 C101.095887,46.6354857 102.900606,45.0834998 103.549839,42.9515381 C104.199072,40.8195763 103.574277,38.4969083 101.949463,37.0021593 L88.4804519,24.5299365 C76.2540733,13.2027833 59.5611254,8.28275853 43.299359,11.2077768 L43.299359,11.2077768 Z M45.248591,22.4731579 C58.1046403,20.1612839 71.2806274,24.0460559 80.9466065,33.0007069 L85.4801239,37.2023463 L75.4933099,38.5681937 C63.9490841,40.135372 52.2441604,37.2561108 42.6643055,30.4977973 L34.1229869,24.4635888 L45.248591,22.4731579 Z" id="Shape"></path>
                <path d="M108.613354,116.407315 C106.373142,116.407614 104.355143,117.791563 103.50533,119.910413 C102.655517,122.029262 103.142347,124.462996 104.737609,126.070759 C109.562777,131.034895 112.532204,137.871993 112.532204,145.485547 L112.532204,153.101355 C112.532204,172.622075 125.671107,193.034198 134.71025,206.916876 C141.077403,216.696394 144.645567,228.324081 144.658024,240.503964 C144.658024,243.622054 147.130762,246.149765 150.181038,246.149765 C153.231315,246.149765 155.704052,243.622054 155.704052,240.503964 C155.693028,226.076978 151.457225,212.26417 143.904395,200.665783 C135.049581,187.065965 123.578232,166.945717 123.578232,153.100228 L123.578232,145.48442 C123.578232,134.840545 119.357753,125.124136 112.553812,118.12476 C111.519943,117.033536 110.099414,116.4144 108.613354,116.407315 L108.613354,116.407315 Z M144.615029,259.234704 C142.598246,259.368712 140.814239,260.618389 139.964047,262.492666 C136.971689,268.851944 132.671173,274.2939 127.346268,278.759932 C116.696017,287.694251 101.863432,292.714734 85.9185936,292.714734 C83.8727863,292.59303 81.9293186,293.63958 80.8704906,295.43312 C79.8116626,297.226659 79.8116626,299.472131 80.8704906,301.26567 C81.9293186,303.05921 83.8727863,304.10576 85.9185936,303.984056 C104.113516,303.984056 121.41954,298.335872 134.365737,287.476753 C140.838945,282.046066 146.210924,275.312646 149.93343,267.400455 C150.824879,265.587952 150.696193,263.425825 149.59636,261.737167 C148.496528,260.04851 146.594758,259.093121 144.615029,259.234704 L144.615029,259.234704 Z" id="Shape"></path>
            </g>
        </g>
    </g>
</svg>