<?xml version="1.0" encoding="UTF-8" standalone="no"?>
<svg width="32px" height="24px" viewBox="0 0 32 24" version="1.1" xmlns="http://www.w3.org/2000/svg" xmlns:xlink="http://www.w3.org/1999/xlink">
    <!-- Generator: Sketch 47.1 (45422) - http://www.bohemiancoding.com/sketch -->
    <title>season</title>
    <desc>Created with Sketch.</desc>
    <defs></defs>
    <g id="Page-1" stroke="none" stroke-width="1" fill="none" fill-rule="evenodd">
        <g id="season" transform="translate(0.000000, -0.362200)" fill="#202020">
            <path d="M11.30338,3.2309 C11.20438,3.5868 10.98066,3.901 10.6507,4.0939 C9.99029,4.4795 9.1517,4.3482 8.53129,3.8465 C8.38212428,3.73666813 8.30248127,3.55264205 8.32403984,3.36762008 C8.34559841,3.18259812 8.46486252,3.02658431 8.63439359,2.96163483 C8.80392466,2.89668534 8.99623072,2.93333269 9.13482,3.057 C9.45973,3.32 9.90654,3.3546 10.15099,3.2116 C10.39526,3.0691 10.46321,2.8497 10.31813,2.5307 C10.17299,2.2118 9.76803,1.9402 9.39249,1.9352 C9.20907007,1.94453479 9.03393213,1.84849025 8.93791906,1.68591617 C8.84190599,1.52334208 8.84090628,1.32114166 8.93532432,1.16110446 C9.02974236,1.00106727 9.20395359,0.909676691 9.38749,0.9239 C10.16351,0.9339 10.88574,1.3956 11.2139,2.117 C11.37798,2.4776 11.40302,2.8746 11.3039,3.2307 L11.30338,3.2309 Z" id="Shape"></path>
            <path d="M13.21687,8.388 C10.69012,8.1949 8.16015,9.2943 6.59316,11.4309 C4.50384,14.2797 4.68456,18.2078 7.02875,20.8507 C9.37294,23.4935 13.2511,24.1433 16.32656,22.4062 C16.4885794,22.3219059 16.5917939,22.1559571 16.5958132,21.9732933 C16.5998325,21.7906295 16.5040175,21.6202969 16.3458628,21.5289507 C16.1877082,21.4376045 15.9923628,21.4397701 15.83627,21.5346 C13.16616,23.0427 9.81211,22.4826 7.77687,20.1881 C5.74164,17.8936 5.58397,14.4963 7.39792,12.0231 C9.21188,9.5497 12.49885,8.6798 15.29716,9.9339 C18.09547,11.188 19.63548,14.2207 18.9987,17.2215 C18.9611971,17.3966114 19.0200886,17.5784245 19.1531224,17.6982413 C19.2861563,17.8180581 19.4730472,17.8576088 19.6431787,17.8019492 C19.8133102,17.7462896 19.9407405,17.6039068 19.97732,17.4286 C20.71076,13.9723 18.92851,10.4656 15.7054,9.0213 C14.89963,8.6601 14.05912,8.4524 13.21687,8.388 L13.21687,8.388 Z" id="Shape"></path>
            <path d="M12.64064,10.3677 C9.6087,10.3677 7.14009,12.8376 7.14009,15.8711 C7.14009,18.9045 9.6087,21.3744 12.64064,21.3744 C15.67259,21.3744 18.14119,18.9045 18.14119,15.8711 C18.14119,12.8376 15.67259,10.3677 12.64064,10.3677 Z M12.64064,11.3683 C15.1321,11.3683 17.14109,13.3784 17.14109,15.8711 C17.14109,18.3638 15.1321,20.3738 12.64064,20.3738 C10.14919,20.3738 8.14019,18.3638 8.14019,15.8711 C8.14019,13.3784 10.14919,11.3683 12.64064,11.3683 L12.64064,11.3683 Z" id="Shape"></path>
            <path d="M11.53702,10.6179 C11.2721621,10.6254557 11.0591636,10.8383821 11.0513887,11.103367 C11.0436137,11.3683519 11.2437612,11.5934126 11.50772,11.6165 C13.09712,11.7417 14.43463,12.8465 14.85961,14.3839 C15.28461,15.9212 14.70556,17.5556 13.40635,18.48 C12.10713,19.4046 10.37229,19.4175 9.0602,18.511 C8.91347105,18.4025837 8.71938204,18.3826939 8.55373218,18.4590984 C8.38808231,18.5355029 8.27714883,18.6960814 8.26425551,18.878122 C8.25136218,19.0601626 8.3385543,19.2347879 8.49178,19.3338 C10.14725,20.477 12.3453,20.4631 13.98452,19.2968 C15.62375,18.1305 16.36076,16.0577 15.82456,14.1179 C15.28835,12.1783 13.5912,10.7777 11.58584,10.6197 C11.569583,10.6189055 11.553297,10.6189055 11.53704,10.6197 L11.53702,10.6179 Z" id="Shape"></path>
            <path d="M10.0896,11.083 C9.81402669,11.0897441 9.59585577,11.3182927 9.60178043,11.5940236 C9.60770509,11.8697545 9.83549161,12.0887112 10.1111,12.0836 C11.37479,12.1206 12.48243,12.9258 12.9102,14.1161 C13.33797,15.3063 12.9956,16.6319 12.04488,17.4657 C11.0942,18.2995 9.73438,18.466 8.61095,17.886 C8.45128126,17.795146 8.25468161,17.7991794 8.0988696,17.8965056 C7.9430576,17.9938319 7.85311352,18.1687849 7.86459351,18.3522033 C7.87607349,18.5356218 7.98712968,18.6979817 8.15386,18.7751 C9.63987,19.5425 11.44761,19.3211 12.7051,18.2182 C13.96259,17.1153 14.41753,15.3525 13.8517,13.778 C13.28587,12.2036 11.81193,11.1322 10.14039,11.083 C10.1234676,11.082139 10.1065124,11.082139 10.08959,11.083 L10.0896,11.083 Z" id="Shape"></path>
            <path d="M9.64425,11.5207 C9.40147626,11.5189117 9.19248777,11.691834 9.14867763,11.9307492 C9.10486749,12.1696643 9.23889257,12.4055489 9.46649,12.4901 C10.61988,12.9517 11.21473,14.2145 10.83577,15.3981 C10.45681,16.5817 9.23954,17.2642 8.03276,16.9694 C7.85897898,16.926794 7.67568034,16.9801869 7.55191673,17.1094644 C7.42815311,17.238742 7.38272904,17.4242619 7.43275676,17.5961347 C7.48278448,17.7680075 7.62066283,17.9001191 7.79445,17.9427 C9.50205,18.3598 11.25276,17.3778 11.78899,15.7029 C12.32523,14.0282 11.47163,12.2131 9.83958,11.5598 C9.77774236,11.5338276 9.71131506,11.5205646 9.64425,11.5208 L9.64425,11.5207 Z" id="Shape"></path>
            <path d="M10.59943,7.6161 C9.33608,7.6261 8.07605,7.9589 6.95062,8.6245 C4.69975,9.9557 3.33752,12.3996 3.38971,15.0151 C3.44191,17.6306 4.90041,20.0169 7.20259,21.2571 C7.36051353,21.347956 7.55532448,21.3457079 7.71111146,21.2512318 C7.86689845,21.1567556 7.95901492,20.9849982 7.95156614,20.8028876 C7.94411736,20.6207771 7.83828176,20.4571245 7.6753,20.3757 C5.68928,19.3058 4.43485,17.2499 4.38981,14.9936 C4.34481,12.7372 5.51673,10.6347 7.45848,9.4863 C9.40022,8.3379 11.80776,8.3239 13.76185,9.4513 C13.9168758,9.54860687 14.112645,9.5534212 14.2722618,9.463852 C14.4318787,9.37428279 14.5298478,9.20463683 14.5276882,9.02154889 C14.5255286,8.83846094 14.4235851,8.67117544 14.2619,8.5854 C13.12931,7.9322 11.86276,7.6093 10.59943,7.6162 L10.59943,7.6161 Z" id="Shape"></path>
            <path d="M7.93705,7.3815 C5.62888,7.5443 3.50285,8.9372 2.48533,11.1455 C1.12861,14.0901 2.15378,17.5941 4.88205,19.3439 C5.03251829,19.446515 5.22684283,19.4591905 5.38935413,19.3769905 C5.55186542,19.2947906 5.65687447,19.1307091 5.66349102,18.9486389 C5.67010756,18.7665688 5.57728569,18.5952907 5.42117,18.5015 C3.10677,17.0173 2.24273,14.0636 3.39362,11.5657 C4.54452,9.0679 7.35094,7.8044 9.98217,8.6011 C10.1531686,8.65314259 10.3389283,8.60995067 10.4694644,8.48779671 C10.6000005,8.36564276 10.6554778,8.18308826 10.6149955,8.00891029 C10.5745131,7.83473233 10.4442223,7.69539752 10.27321,7.6434 C9.49777,7.4087 8.70644,7.3273 7.93705,7.3815 L7.93705,7.3815 Z" id="Shape"></path>
            <path d="M5.32936,6.293 C4.65091,6.0548 3.91742,6.0581 3.22563,6.35 C1.84206,6.9332 0.90733,8.4473 0.66093,10.243 C0.41452,12.0387 0.88489,13.8678 1.96379,15.0603 C2.08212072,15.1981143 2.26582066,15.2609232 2.44370345,15.2243873 C2.62158624,15.1878514 2.76569599,15.0577127 2.8201881,14.8844018 C2.8746802,14.7110908 2.83099074,14.5218451 2.70605,14.39 C1.88076,13.4778 1.44167,11.9072 1.65126,10.3798 C1.86085,8.8524 2.67028,7.6704 3.61434,7.2724 C4.55841,6.8745 5.54036,7.1994 6.29235,8.2633 C6.45204551,8.48887834 6.76427957,8.54222169 6.9897443,8.38244571 C7.21520902,8.22266973 7.26852551,7.91027834 7.10883,7.6847 C6.63209,7.0106 6.00781,6.5315 5.32936,6.2933 L5.32936,6.293 Z" id="Shape"></path>
            <path d="M4.66391,3.8824 C4.03217,3.7033 3.38053,3.8564 2.82268,4.2224 C2.26481,4.5884 1.77731,5.1654 1.38394,5.9059 C0.59718,7.3869 0.30726,9.2835 0.62926,10.9297 C0.660041588,11.1132854 0.784532125,11.2709335 0.95430456,11.3413187 C1.12407699,11.411704 1.3123272,11.3837139 1.4458255,11.2682366 C1.5793238,11.1527592 1.63699313,10.9680266 1.5964,10.7859 C1.32968,9.4222 1.5874,7.6923 2.25699,6.4311 C2.59203,5.8002 2.99638,5.3429 3.38775,5.0862 C3.77913,4.8294 4.13315,4.7705 4.45212,4.8609 C4.77044,4.9549 5.07155,5.1994 5.32513,5.6421 C5.5787,6.0848 5.76614,6.7107 5.82523,7.4545 C5.83598508,7.63850928 5.94249047,7.80790051 6.10361971,7.8972642 C6.26474895,7.98662789 6.45528637,7.98197922 6.601657,7.88511324 C6.74802763,7.78824727 6.82732543,7.61432287 6.80893,7.4305 C6.73983,6.5601 6.5246,5.788 6.16824,5.1659 C5.81188,4.5437 5.29564,4.0619 4.66391,3.8829 L4.66391,3.8824 Z" id="Shape"></path>
            <path d="M5.67247,2.201 C5.2421,2.0208 4.7492,1.9978 4.28004,2.171 C3.34175,2.5166 2.70604,3.4512 2.61028,4.4975 C2.59279349,4.67619335 2.67233948,4.85056268 2.81872507,4.95442345 C2.96511066,5.05828421 3.1558936,5.07571361 3.31865932,5.00009604 C3.48142503,4.92447848 3.59122005,4.76740681 3.60637,4.5885 C3.66907,3.9041 4.12418,3.294 4.62531,3.1094 C5.12648,2.9248 5.54253,3.0954 5.78791,3.6072 C6.0333,4.1189 5.94644,4.8949 5.53936,5.4264 C5.42304908,5.56755004 5.39300164,5.7609556 5.46100138,5.93076896 C5.52900112,6.10058231 5.68420703,6.2197306 5.86575211,6.24148751 C6.04729718,6.26324442 6.22623821,6.18414131 6.3324,6.0352 C6.96681,5.2067 7.12568,4.0834 6.6893,3.1736 C6.47113,2.7186 6.10281,2.3814 5.67247,2.2011 L5.67247,2.201 Z" id="Shape"></path>
            <path d="M7.59092,1.5892 C7.2946,1.2259 6.87525,0.9762 6.38444,0.9169 C5.40287,0.7981 4.45132,1.3929 3.94031,2.3168 C3.84697379,2.47365623 3.84642707,2.66892105 3.93888346,2.826298 C4.03133986,2.98367495 4.20212411,3.07818415 4.38450511,3.07289772 C4.56688611,3.06761129 4.73191519,2.96336831 4.81511,2.8009 C5.15457,2.1872 5.78167,1.8522 6.26442,1.9106 C6.74717,1.9686 7.06025,2.3274 7.06296,2.945 C7.06596,3.5625 6.6593,4.2464 6.10454,4.5444 C5.94273326,4.62641818 5.83799956,4.78966457 5.8308452,4.97100282 C5.82369083,5.15234107 5.91523753,5.32333915 6.07007915,5.41786269 C6.22492076,5.51238624 6.41877969,5.51561491 6.57668,5.4263 C7.48205,4.9399 8.0667,3.9657 8.06223,2.9418 C8.06023,2.4298 7.88719,1.9527 7.59092,1.5892 L7.59092,1.5892 Z" id="Shape"></path>
            <path d="M9.71704,1.6282 C9.60247,1.2139 9.33584,0.8527 8.95398,0.6247 C8.18139,0.1737 7.18497,0.3242 6.44721,0.9208 C6.29669169,1.02987473 6.21568885,1.21421284 6.23662903,1.40001902 C6.25756921,1.58582519 6.37703024,1.74273392 6.54718878,1.80793055 C6.71734731,1.87312719 6.91039506,1.83595693 7.04905,1.7113 C7.49137,1.3537 8.09775,1.299 8.45426,1.5071 C8.81082,1.7153 8.91746,2.0692 8.71359,2.5171 C8.50982,2.9651 7.96468,3.3271 7.44624,3.3337 C7.2688305,3.33459653 7.10378141,3.43297086 7.01377782,3.59146073 C6.92377424,3.7499506 6.9226246,3.94424037 7.01076552,4.10053941 C7.09890645,4.25683845 7.26281529,4.35116724 7.44024,4.3477 C8.35916,4.3357 9.22061,3.782 9.60748,2.9318 C9.80091,2.5065 9.8325,2.0426 9.71745,1.6282 L9.71704,1.6282 Z" id="Shape"></path>
            <path d="M19.20575,18.1225 C17.92922,18.1225 16.88326,19.167 16.88326,20.4441 C16.88326,21.0827 17.10958,21.8456 17.47902,22.5216 C17.66374,22.8596 17.88459,23.1721 18.16268,23.4205 C18.44077,23.669 18.79608,23.8622 19.20575,23.8622 C19.58338,23.8622 19.82309,23.704 20.05544,23.5788 C20.28793,23.7038 20.52839,23.8616 20.90514,23.8622 C20.9058067,23.8622013 20.9064733,23.8622013 20.90714,23.8622 C21.31681,23.8622 21.67017,23.669 21.94825,23.4205 C22.22635,23.1721 22.44915,22.8596 22.63387,22.5216 C23.00332,21.8456 23.22768,21.0827 23.22768,20.4441 C23.22768,19.167 22.18367,18.1225 20.90714,18.1225 C20.63619,18.1225 20.34619,18.1535 20.05744,18.2592 C19.76745,18.1525 19.47622,18.123 19.20579,18.1225 L19.20575,18.1225 Z M19.20575,19.1231 C19.40283,19.1234 19.57271,19.1471 19.71362,19.1991 C19.7142867,19.1991013 19.7149533,19.1991013 19.71562,19.1991 C19.96509,19.2901 20.14758,19.2901 20.39733,19.1991 C20.53885,19.1471 20.7112,19.1251 20.90715,19.1251 C21.64315,19.1251 22.22759,19.7096 22.22759,20.4461 C22.22759,20.8143 22.04488,21.5122 21.75488,22.0428 C21.60989,22.3082 21.44005,22.5349 21.28219,22.6759 C21.12431,22.8171 21.00061,22.8636 20.90715,22.8636 C20.79491,22.8634 20.56034,22.7607 20.2899,22.6173 C20.1433117,22.5394813 19.9676883,22.5394813 19.8211,22.6173 C19.55024,22.7609 19.31693,22.8636 19.2058,22.8636 C19.1123,22.8636 18.98669,22.8176 18.82881,22.6759 C18.67095,22.5349 18.50111,22.3082 18.35611,22.0428 C18.06611,21.5122 17.88341,20.8143 17.88341,20.4461 C17.88341,19.7096 18.4698,19.1251 19.2058,19.1251 L19.20575,19.1231 Z" id="Shape"></path>
            <path d="M23.38391,17.2996 C23.15515,17.2996 22.93226,17.3326 22.71978,17.3976 C22.5487914,17.4496024 22.4185239,17.588927 22.3780534,17.7630859 C22.337583,17.9372448 22.3930589,18.1197754 22.5235815,18.2419125 C22.6541042,18.3640496 22.8398414,18.4072353 23.01082,18.3552 C23.12745,18.3202 23.25103,18.3002 23.38391,18.3002 C23.58041,18.3006 23.75025,18.3242 23.89177,18.3762 C23.8924367,18.3762013 23.8931033,18.3762013 23.89377,18.3762 C24.14277,18.4672 24.32453,18.4672 24.57353,18.3762 C24.5741967,18.3762013 24.5748633,18.3762013 24.57553,18.3762 C24.71894,18.3232 24.88887,18.3002 25.08339,18.3002 C25.8193,18.3002 26.40578,18.887 26.40578,19.6233 C26.40578,19.9915 26.22315,20.6875 25.93308,21.218 C25.78805,21.4832 25.61828,21.7102 25.46038,21.8513 C25.30312,21.9917 25.17874,22.0385 25.08534,22.0389 C24.97209,22.0387 24.738,21.9377 24.46809,21.7945 C24.3215017,21.7166813 24.1458783,21.7166813 23.99929,21.7945 C23.72896,21.938 23.49614,22.0389 23.384,22.0389 C23.2036284,22.0362928 23.0358317,22.1310751 22.9448853,22.2869402 C22.8539388,22.4428053 22.8539388,22.6355947 22.9448853,22.7914598 C23.0358317,22.9473249 23.2036284,23.0421072 23.384,23.0395 C23.76083,23.0395 24.00114,22.881 24.23369,22.7561 C24.46637,22.8809 24.70743,23.0388 25.08339,23.0395 C25.493,23.0395 25.84833,22.8462 26.12646,22.5977 C26.4046,22.3494 26.62728,22.0367 26.81207,21.6988 C27.18166,21.023 27.40588,20.2619 27.40588,19.6233 C27.40588,18.346 26.36002,17.2996 25.08339,17.2996 C24.81042,17.2996 24.52121,17.3336 24.23369,17.4384 C23.94494,17.3325 23.65634,17.3001 23.38595,17.2996 C23.3852833,17.2995987 23.3846167,17.2995987 23.38395,17.2996 L23.38391,17.2996 Z" id="Shape"></path>
            <path d="M23.51868,15.3513 C23.3241271,15.3492683 23.146,15.4601409 23.0618439,15.6356509 C22.9776879,15.8111609 23.0027306,16.0195504 23.12607,16.1701 C23.1376729,16.1844395 23.1500584,16.198127 23.16317,16.2111 C23.5496,16.5977 23.76675,17.1222 23.76674,17.669 L23.76674,17.8586 C23.766544,18.0378199 23.8619959,18.2035098 24.0170941,18.2931764 C24.1721923,18.382843 24.3633377,18.382843 24.5184359,18.2931764 C24.6735341,18.2035098 24.768986,18.0378199 24.76879,17.8586 L24.76879,17.669 C24.7688,16.8569 24.44623,16.078 23.87222,15.5036 C23.7793471,15.4077427 23.6520846,15.3529229 23.51866,15.3513 L23.51868,15.3513 Z M23.87224,15.5036 L23.90934,15.5446 C23.8977371,15.5302605 23.8853516,15.516573 23.87224,15.5036 L23.87224,15.5036 Z" id="Shape"></path>
            <path d="M23.93865,9.3007 C23.21927,9.3287 22.59182,9.8251 22.12206,10.5905 C21.18255,12.1214 20.86087,14.5568 21.20595,16.8189 C21.2280695,16.999807 21.3467575,17.1543714 21.5157684,17.2223687 C21.6847793,17.2903661 21.8773766,17.2610397 22.018517,17.1458163 C22.1596573,17.0305929 22.2270132,16.8477 22.19434,16.6684 C21.88135,14.6167 22.24164,12.3071 22.97371,11.1143 C23.33972,10.5178 23.70257,10.3101 23.97772,10.2993 C24.25287,10.2883 24.59512,10.4564 24.9661,11.0166 C25.70806,12.137 26.11253,14.4188 25.83337,16.4964 C25.8096416,16.6737449 25.8822804,16.8502836 26.0239241,16.9595158 C26.1655677,17.0687479 26.3546971,17.0940785 26.5200691,17.0259658 C26.6854411,16.957853 26.8019317,16.8066449 26.82566,16.6293 C27.13267,14.3443 26.77376,11.9357 25.80017,10.4654 C25.31335,9.7303 24.65803,9.2724 23.93865,9.3007 L23.93865,9.3007 Z" id="Shape" fill-rule="nonzero"></path>
            <path d="M22.39357,9.2987 C21.16801,9.2987 20.08272,10.0022 19.33467,11.0557 C19.2293492,11.2015711 19.2102991,11.3927459 19.2847615,11.5565501 C19.359224,11.7203542 19.5157624,11.8316292 19.6948693,11.8480742 C19.8739761,11.8645192 20.0481426,11.7836085 20.15116,11.6361 C20.75966,10.7791 21.54719,10.3 22.39162,10.2993 C22.64741,10.2993 22.90093,10.3483 23.15342,10.442 C23.3218469,10.5081865 23.5128716,10.478181 23.6529233,10.3635397 C23.7929749,10.2488985 23.8602048,10.0675062 23.8287199,9.889224 C23.7972351,9.71094176 23.6719474,9.56358253 23.50111,9.5039 C23.14427,9.3719 22.77163,9.3013 22.39748,9.2987 C22.3961467,9.29869467 22.3948133,9.29869467 22.39348,9.2987 L22.39357,9.2987 Z" id="Shape" fill-rule="nonzero"></path>
            <path d="M25.60483,9.2987 C25.23068,9.2987 24.85805,9.3717 24.50121,9.5039 C24.3303715,9.56358171 24.2050826,9.71094112 24.1735973,9.88922405 C24.1421119,10.067507 24.2093421,10.2489001 24.3493946,10.3635415 C24.4894471,10.4781829 24.6804728,10.5081878 24.8489,10.442 C25.10014,10.349 25.35422,10.3016 25.60874,10.2993 C26.4539,10.2993 27.24221,10.7785 27.85116,11.6361 C28.46011,12.4937 28.85712,13.7174 28.85712,15.0796 C28.85712,16.4418 28.46011,17.6673 27.85116,18.525 C27.7456565,18.6708545 27.7265793,18.8621637 27.801201,19.0259983 C27.8758226,19.1898328 28.0326436,19.300945 28.2118817,19.3169776 C28.3911199,19.3330102 28.565154,19.2514925 28.66764,19.1035 C29.41568,18.05 29.85722,16.6338 29.85722,15.0796 C29.85722,13.5253 29.41568,12.1092 28.66764,11.0557 C27.91959,10.0022 26.8343,9.2987 25.60874,9.2987 C25.6074067,9.29869467 25.6060733,9.29869467 25.60474,9.2987 L25.60483,9.2987 Z" id="Shape" fill-rule="nonzero"></path>
            <path d="M20.25273,9.2987 C19.63993,9.2987 19.05506,9.4772 18.53772,9.7854 C18.3754618,9.87217658 18.2739304,10.0410832 18.2733762,10.2251596 C18.272822,10.409236 18.3733346,10.5787515 18.5350673,10.6665045 C18.6968001,10.7542575 18.8936311,10.7460747 19.04753,10.6452 C19.42675,10.4194 19.82892,10.2997 20.25078,10.2993 C20.54614,10.3 20.83973,10.3603 21.12977,10.483 C21.2955033,10.5606105 21.4903701,10.541461 21.6378437,10.4330717 C21.7853172,10.3246823 21.861847,10.1443622 21.8373788,9.96292537 C21.8129105,9.78148855 21.6913517,9.62790921 21.52044,9.5625 C21.11409,9.3906 20.68455,9.2997 20.25273,9.2987 L20.25273,9.2987 Z" id="Shape" fill-rule="nonzero"></path>
            <path d="M27.74958,9.2987 C27.31777,9.2997 26.88823,9.3907 26.48188,9.5625 C26.3109486,9.62789381 26.1893677,9.78147542 26.1648896,9.9629239 C26.1404115,10.1443724 26.2169456,10.3247075 26.3644324,10.4331005 C26.5119193,10.5414935 26.7068027,10.5606323 26.87254,10.483 C27.16258,10.3602 27.45619,10.3 27.75154,10.2993 C28.59668,10.2993 29.38499,10.7784 29.99394,11.6361 C30.60289,12.4937 30.9999,13.7173 30.9999,15.0796 C30.9999,16.4417 30.60289,17.6673 29.99394,18.525 C29.68948,18.9539 29.33459,19.2895 28.95478,19.5159 C28.76454,19.6291 28.56864,19.7145 28.36878,19.7718 C28.26767,19.8008 28.16634,19.8238 28.06407,19.8378 C27.8871455,19.8629266 27.7370599,19.9805829 27.6703519,20.1464465 C27.603644,20.3123101 27.6304488,20.5011809 27.7406688,20.6419093 C27.8508887,20.7826377 28.0277778,20.8538425 28.2047,20.8287 C28.35452,20.8077 28.50124,20.7737 28.6442,20.7327 C28.93266,20.6497 29.20823,20.5289 29.46655,20.375 C29.98387,20.0668 30.43642,19.6295 30.81043,19.1028 C31.55849,18.0493 32,16.6331 32,15.0789 C32,13.5245 31.55848,12.1085 30.81043,11.055 C30.06239,10.0015 28.97709,9.298 27.75154,9.298 L27.74958,9.2987 Z" id="Shape" fill-rule="nonzero"></path>
            <path d="M23.00106,7.1021 C22.8472598,7.10235069 22.7021289,7.1733914 22.6075389,7.29472616 C22.512949,7.41606092 22.4794217,7.57419311 22.51663,7.7235 L23.01668,9.7247 C23.0593345,9.89887106 23.1918568,10.0369049 23.3640836,10.0865519 C23.5363104,10.1361989 23.7219239,10.0898725 23.8506641,9.96510853 C23.9794043,9.84034458 24.0315986,9.65620812 23.98749,9.4824 L23.64369,8.1027 L24.25119,8.1027 L24.25119,9.6036 C24.2486297,9.78403334 24.3433748,9.95186767 24.4991432,10.0428319 C24.6549116,10.1337962 24.8475684,10.1337962 25.0033368,10.0428319 C25.1591052,9.95186767 25.2538503,9.78403334 25.25129,9.6036 L25.25129,7.6024 C25.2512611,7.32610315 25.0273977,7.10212784 24.75124,7.1021 L23.00106,7.1021 Z" id="Shape"></path>
        </g>
    </g>
</svg>