<?xml version="1.0" encoding="UTF-8" standalone="no"?>
<svg width="90px" height="90px" viewBox="0 0 90 90" version="1.1" xmlns="http://www.w3.org/2000/svg" xmlns:xlink="http://www.w3.org/1999/xlink">
    <!-- Generator: Sketch 47.1 (45422) - http://www.bohemiancoding.com/sketch -->
    <title>stomach</title>
    <desc>Created with Sketch.</desc>
    <defs></defs>
    <g id="Page-1" stroke="none" stroke-width="1" fill="none" fill-rule="evenodd">
        <g id="stomach" fill-rule="nonzero" fill="#202020">
            <path d="M62.5,7.5 C58.427,7.5 54.396,8.41 50.73,10.145 L43.131,2.234 C41.679,0.782 39.737,0.014 37.515,0.014 C34.561,0.014 31.34,1.471 28.9,3.912 C25.273,7.539 22.841,14.902 27.715,18.651 L40.606,31.893 C43.439,34.727 45,38.493 45,42.5 C45,50.771 38.271,57.5 30,57.5 C28.973,57.5 27.751,57.035 26.336,56.496 C24.495,55.795 22.409,55 20,55 L19.781,55 C14.371,55 0,55 0,82.5 C0,86.775 4.299,90 10,90 C15.701,90 20,86.775 20,82.5 C20,78.75 20.942,78.75 22.505,78.75 C24.106,78.75 25.858,79.567 27.89,80.515 C28.591,80.843 29.29,81.168 29.989,81.463 C35.735,83.894 44.391,85 50,85 C72.056,85 90,67.056 90,45 C90,32.029 84.253,7.5 62.5,7.5 Z M30.978,14.835 C28.799,12.676 30.661,9.221 32.435,7.447 C33.936,5.946 35.883,5.013 37.515,5.013 C38.189,5.013 38.755,5.164 39.193,5.443 C39.247,5.51 39.294,5.581 39.357,5.643 C40.212,6.497 40.191,7.747 40.022,8.644 C39.751,10.085 38.918,11.563 37.678,12.803 C36.148,14.335 33.153,16.137 30.978,14.835 Z M50,80 C44.716,80 36.814,78.921 31.936,76.857 C31.294,76.586 30.652,76.286 30,75.982 C27.646,74.884 25.214,73.75 22.505,73.75 C17.525,73.75 15,76.694 15,82.5 C15,83.544 13.098,85 10,85 C6.902,85 5,83.544 5,82.5 C5,60 14.983,60 19.781,60 L20,60 C21.489,60 22.979,60.567 24.558,61.169 C26.276,61.823 28.053,62.5 30,62.5 C41.028,62.5 50,53.528 50,42.5 C50,37.157 47.919,32.135 44.165,28.382 L35.732,19.718 C37.697,19.094 39.622,17.931 41.214,16.339 C42.788,14.765 43.944,12.89 44.573,10.95 L48.418,14.954 C49.209,15.777 50.454,15.962 51.45,15.399 C54.81,13.503 58.631,12.5 62.5,12.5 C80.298,12.5 85,33.759 85,45 C85,64.299 69.299,80 50,80 Z" id="Shape"></path>
            <path d="M50,70 C48.619,70 47.5,71.119 47.5,72.5 C47.5,73.881 48.619,75 50,75 C66.542,75 80,61.542 80,45 C80,43.619 78.881,42.5 77.5,42.5 C76.119,42.5 75,43.619 75,45 C75,58.785 63.785,70 50,70 Z" id="Shape"></path>
        </g>
    </g>
</svg>